<?xml version="1.0" encoding="utf-8"?>
<!-- Generator: Adobe Illustrator 16.0.0, SVG Export Plug-In . SVG Version: 6.00 Build 0)  -->
<!DOCTYPE svg PUBLIC "-//W3C//DTD SVG 1.1//EN" "http://www.w3.org/Graphics/SVG/1.1/DTD/svg11.dtd">
<svg version="1.1" id="图层_1" xmlns="http://www.w3.org/2000/svg" xmlns:xlink="http://www.w3.org/1999/xlink" x="0px" y="0px"
	 width="200px" height="200px" viewBox="0 0 200 200" enable-background="new 0 0 200 200" xml:space="preserve">
<path fill="#0008AA" d="M175.711,175.335c-1.414-21.12-11.852-40.769-28.635-53.913l-1.009-0.696l-0.009,0.014
	c-0.955-0.584-2.043-0.896-3.163-0.896c-3.849,0-6.144,1.854-6.144,4.963c0,1.81,0.836,3.511,2.241,4.664l-0.017,0.027l0.892,0.639
	c14.075,10.063,22,25.322,23.552,45.365l0.017,0.219c-0.015,0.168-0.022,0.338-0.022,0.51c0,3.388,2.746,6.133,6.133,6.133
	c3.273,0,5.947-2.564,6.123-5.793h0.121L175.711,175.335z M155.96,72.616c0-30.49-25.104-55.296-55.962-55.296
	S44.036,42.126,44.036,72.616c0,16.428,7.264,31.752,19.996,42.316c-22.855,12.198-38.025,35.467-39.742,61.156l-0.071,1.071
	c-0.001,0.021-0.003,0.044-0.004,0.066l-0.006,0.098h0.004c-0.001,0.052-0.004,0.104-0.004,0.156c0,2.871,2.328,5.199,5.2,5.199
	s5.2-2.327,5.2-5.199c0-0.053-0.002-0.104-0.004-0.156h0.108l0.082-1.068c1.884-24.414,17.357-45.791,39.475-54.6
	c6.603,3.066,16.684,6.262,25.726,6.262c8.377,0,16.512-1.847,24.258-5.529l5.674-3.293l4.633-3.041
	C148.158,105.469,155.96,89.633,155.96,72.616z"/>
</svg>
